<svg class="diagram-root" style="background: #f5f6f6" xmlns="http://www.w3.org/2000/svg" xmlns:xlink="http://www.w3.org/1999/xlink"><style>.diagram-root { font-family: "Helvetica Neue", sans-serif; font-size: 12px; } .t { overflow: visible; } .t-bg { y: 40; fill: #fff;   } .th { fill: #005aa0;   } .tht { fill: #fff; font-size: 14px;  } .tf { fill: #323c46; overflow: visible; } .tf.pk { fill: #005aa0; font-weight: bold; } .tf.fk { font-weight: bold; } .ty { fill: #adb1b5; font-weight: normal; text-anchor: end; } .r { fill: transparent; stroke: #c3c3c3; stroke-width: 1; } .l { stroke: 1; } .i { fill: #c2c7ce; stroke: #c2c7ce; } .i.ix { fill: #afb3b6; stroke: #000; } .fa { fill: transparent; overflow: visible; } .fa .bg.hover { fill: #f7f7f7; } .c { cy: 12; r: 4; stroke: #d2d2dc; fill: #d2d2dc; } .hr { fill: transparent; stroke: #323c46; stroke-opacity: 0.035; stroke-width: 13; } .dc { stroke: #fa5a3c; fill: #fa5a3c; } .x { stroke: white; stroke-width: 1; } .hl .th { fill: #1b9bff; } .hl .tht {  } .fhl .bg { fill: #e7f4ff; } .fhls .bg {  } .r.hl { stroke: #1b9bff; } .dim { opacity: 0.25; }</style><g class="drawing-wrapper" transform="translate(-46.57142857142857, 98.57428571428568) scale(1,1)"><g class="rs"><path d="M 569.3 339.86 m -1, 0 a 1,1 0 1,0 2,0 a 1,1 0 1,0 -2,0 M 569.3 339.86 m -0.5, 0 a 0.5,0.5 0 1,0 1,0 a 0.5,0.5 0 1,0 -1,0  M569.3 339.86 L569.3 339.86 581.3 339.86 M575.3 345.86 L575.3 345.86 575.3 333.86 M581.3 339.86 C 633.108 339.86, 632.43 -11.569999999999993, 582.43 -11.569999999999993 M 570.43 -11.569999999999993 m -1, 0 a 1,1 0 1,0 2,0 a 1,1 0 1,0 -2,0 M 570.43 -11.569999999999993 m -0.5, 0 a 0.5,0.5 0 1,0 1,0 a 0.5,0.5 0 1,0 -1,0  M570.43 -11.569999999999993 L570.43 -11.569999999999993 582.43 -11.569999999999993 M576.43 -5.569999999999993 L576.43 -5.569999999999993 576.43 -17.569999999999993" id="h1139284389" class="r"></path><path d="M 402.13 364.86 m -1, 0 a 1,1 0 1,0 2,0 a 1,1 0 1,0 -2,0 M 402.13 364.86 m -0.5, 0 a 0.5,0.5 0 1,0 1,0 a 0.5,0.5 0 1,0 -1,0  M402.13 364.86 L402.13 364.86 390.13 364.86 M396.13 370.86 L396.13 370.86 396.13 358.86 M390.13 364.86 Q 354.54 364.86, 318.94 338.08 T 247.74 311.28999999999996 M 235.74 311.28999999999996 m -1, 0 a 1,1 0 1,0 2,0 a 1,1 0 1,0 -2,0 M 235.74 311.28999999999996 m -0.5, 0 a 0.5,0.5 0 1,0 1,0 a 0.5,0.5 0 1,0 -1,0  M235.74 311.28999999999996 L235.74 311.28999999999996 247.74 311.28999999999996 M241.74 317.28999999999996 L241.74 317.28999999999996 241.74 305.28999999999996" id="h1607168654" class="r"></path><path d="M 277.88 4.149999999999999 m -1, 0 a 1,1 0 1,0 2,0 a 1,1 0 1,0 -2,0 M 277.88 4.149999999999999 m -0.5, 0 a 0.5,0.5 0 1,0 1,0 a 0.5,0.5 0 1,0 -1,0  M277.88 4.149999999999999 L277.88 4.149999999999999 289.88 4.149999999999999 M283.88 10.149999999999999 L283.88 10.149999999999999 283.88 -1.8500000000000014 M289.88 4.149999999999999 C 339.88 4.149999999999999, 365.164 311.28999999999996, 247.74 311.28999999999996 M 235.74 311.28999999999996 m -1, 0 a 1,1 0 1,0 2,0 a 1,1 0 1,0 -2,0 M 235.74 311.28999999999996 m -0.5, 0 a 0.5,0.5 0 1,0 1,0 a 0.5,0.5 0 1,0 -1,0  M235.74 311.28999999999996 L235.74 311.28999999999996 247.74 311.28999999999996 M241.74 317.28999999999996 L241.74 317.28999999999996 241.74 305.28999999999996" id="h1397587031" class="r"></path><path d="M 277.88 29.15 m -1, 0 a 1,1 0 1,0 2,0 a 1,1 0 1,0 -2,0 M 277.88 29.15 m -0.5, 0 a 0.5,0.5 0 1,0 1,0 a 0.5,0.5 0 1,0 -1,0  M277.88 29.15 L277.88 29.15 289.88 29.15 M283.88 35.15 L283.88 35.15 283.88 23.15 M289.88 29.15 Q 311.73 29.15, 333.58 8.79 T 377.28 -11.569999999999993 M 389.28 -11.569999999999993 m -1, 0 a 1,1 0 1,0 2,0 a 1,1 0 1,0 -2,0 M 389.28 -11.569999999999993 m -0.5, 0 a 0.5,0.5 0 1,0 1,0 a 0.5,0.5 0 1,0 -1,0  M389.28 -11.569999999999993 L389.28 -11.569999999999993 377.28 -11.569999999999993 M383.28 -5.569999999999993 L383.28 -5.569999999999993 383.28 -17.569999999999993" id="h2286254435" class="r"></path><path d="M 570.43 -11.569999999999993 m -1, 0 a 1,1 0 1,0 2,0 a 1,1 0 1,0 -2,0 M 570.43 -11.569999999999993 m -0.5, 0 a 0.5,0.5 0 1,0 1,0 a 0.5,0.5 0 1,0 -1,0  M570.43 -11.569999999999993 L570.43 -11.569999999999993 582.43 -11.569999999999993 M576.43 -5.569999999999993 L576.43 -5.569999999999993 576.43 -17.569999999999993 M582.43 -11.569999999999993 C 915.374 -11.569999999999993, 809.27 352.72, 759.27 352.72 M 747.27 352.72 m -1, 0 a 1,1 0 1,0 2,0 a 1,1 0 1,0 -2,0 M 747.27 352.72 m -0.5, 0 a 0.5,0.5 0 1,0 1,0 a 0.5,0.5 0 1,0 -1,0  M747.27 352.72 L747.27 352.72 759.27 352.72 M753.27 358.72 L753.27 358.72 753.27 346.72" id="h2543177687" class="r"></path><path d="M 766.43 2.710000000000001 m -1, 0 a 1,1 0 1,0 2,0 a 1,1 0 1,0 -2,0 M 766.43 2.710000000000001 m -0.5, 0 a 0.5,0.5 0 1,0 1,0 a 0.5,0.5 0 1,0 -1,0  M766.43 2.710000000000001 L766.43 2.710000000000001 754.43 2.710000000000001 M760.43 8.71 L760.43 8.71 760.43 -3.289999999999999 M754.43 2.710000000000001 Q 711.43 2.710000000000001, 668.43 8.07 T 582.43 13.430000000000007 M 570.43 13.430000000000007 m -1, 0 a 1,1 0 1,0 2,0 a 1,1 0 1,0 -2,0 M 570.43 13.430000000000007 m -0.5, 0 a 0.5,0.5 0 1,0 1,0 a 0.5,0.5 0 1,0 -1,0  M570.43 13.430000000000007 L570.43 13.430000000000007 582.43 13.430000000000007 M576.43 19.430000000000007 L576.43 19.430000000000007 576.43 7.430000000000007" id="h724011168" class="r"></path></g><g class="hrs"></g><g class="ts"><svg width="167.17" height="100" x="68.57" y="254.29" id="h475896179" class="t"><rect height="40" width="167.17" class="th"></rect><text x="13" y="25" class="tht">departments</text><rect height="60" width="167.17" class="t-bg" y="40"></rect><text x="13" y="61" class="tf pk">dept_no<tspan x="154.17" class="ty">VARCHAR</tspan></text><path d="M7,14A2,2 0 0,1 5,12A2,2 0 0,1 7,10A2,2 0 0,1 9,12A2,2 0 0,1 7,14M12.65,10C11.83,7.67 9.61,6 7, 6A6, 6 0 0, 0 1, 12A6, 6 0 0, 0 7, 18C9.61, 18 11.83, 16.33 12.65, 14H17V18H21V14H23V10H12.65Z" class="i pk" transform="translate(76.37898437499999, 48) scale(0.65)"></path><text x="13" y="86" class="tf">dept_name<tspan x="154.17" class="ty">VARCHAR</tspan></text></svg><svg width="167.17" height="100" x="402.13" y="282.86" id="h1090417462" class="t"><rect height="40" width="167.17" class="th"></rect><text x="13" y="25" class="tht">dept_emp</text><rect height="60" width="167.17" class="t-bg" y="40"></rect><text x="13" y="61" class="tf pk">emp_no<tspan x="154.17" class="ty">INT</tspan></text><path d="M7,14A2,2 0 0,1 5,12A2,2 0 0,1 7,10A2,2 0 0,1 9,12A2,2 0 0,1 7,14M12.65,10C11.83,7.67 9.61,6 7, 6A6, 6 0 0, 0 1, 12A6, 6 0 0, 0 7, 18C9.61, 18 11.83, 16.33 12.65, 14H17V18H21V14H23V10H12.65Z" class="i pk" transform="translate(114.83992187499999, 48) scale(0.65)"></path><text x="13" y="86" class="tf pk">dept_no<tspan x="154.17" class="ty">VARCHAR</tspan></text><path d="M7,14A2,2 0 0,1 5,12A2,2 0 0,1 7,10A2,2 0 0,1 9,12A2,2 0 0,1 7,14M12.65,10C11.83,7.67 9.61,6 7, 6A6, 6 0 0, 0 1, 12A6, 6 0 0, 0 7, 18C9.61, 18 11.83, 16.33 12.65, 14H17V18H21V14H23V10H12.65Z" class="i pk" transform="translate(76.37898437499999, 73) scale(0.65)"></path></svg><svg width="167.17" height="100" x="110.71" y="-52.85" id="h1676682957" class="t"><rect height="40" width="167.17" class="th"></rect><text x="13" y="25" class="tht">dept_manager</text><rect height="60" width="167.17" class="t-bg" y="40"></rect><text x="13" y="61" class="tf pk">dept_no<tspan x="154.17" class="ty">VARCHAR</tspan></text><path d="M7,14A2,2 0 0,1 5,12A2,2 0 0,1 7,10A2,2 0 0,1 9,12A2,2 0 0,1 7,14M12.65,10C11.83,7.67 9.61,6 7, 6A6, 6 0 0, 0 1, 12A6, 6 0 0, 0 7, 18C9.61, 18 11.83, 16.33 12.65, 14H17V18H21V14H23V10H12.65Z" class="i pk" transform="translate(76.37898437499999, 48) scale(0.65)"></path><text x="13" y="86" class="tf pk">emp_no<tspan x="154.17" class="ty">INT</tspan></text><path d="M7,14A2,2 0 0,1 5,12A2,2 0 0,1 7,10A2,2 0 0,1 9,12A2,2 0 0,1 7,14M12.65,10C11.83,7.67 9.61,6 7, 6A6, 6 0 0, 0 1, 12A6, 6 0 0, 0 7, 18C9.61, 18 11.83, 16.33 12.65, 14H17V18H21V14H23V10H12.65Z" class="i pk" transform="translate(114.83992187499999, 73) scale(0.65)"></path></svg><svg width="181.15" height="225" x="389.28" y="-68.57" id="h1639608377" class="t"><rect height="40" width="181.15" class="th"></rect><text x="13" y="25" class="tht">employees</text><rect height="185" width="181.15" class="t-bg" y="40"></rect><text x="13" y="61" class="tf pk">emp_no<tspan x="168.15" class="ty">INT</tspan></text><path d="M7,14A2,2 0 0,1 5,12A2,2 0 0,1 7,10A2,2 0 0,1 9,12A2,2 0 0,1 7,14M12.65,10C11.83,7.67 9.61,6 7, 6A6, 6 0 0, 0 1, 12A6, 6 0 0, 0 7, 18C9.61, 18 11.83, 16.33 12.65, 14H17V18H21V14H23V10H12.65Z" class="i pk" transform="translate(128.819921875, 48) scale(0.65)"></path><text x="13" y="86" class="tf fk">emp_title_id<tspan x="168.15" class="ty">VARCHAR</tspan></text><text x="13" y="111" class="tf">birth_date<tspan x="168.15" class="ty">DATE</tspan></text><text x="13" y="136" class="tf">first_name<tspan x="168.15" class="ty">VARCHAR(20)</tspan></text><text x="13" y="161" class="tf">last_name<tspan x="168.15" class="ty">VARCHAR(20)</tspan></text><text x="13" y="186" class="tf">sex<tspan x="168.15" class="ty">VARCHAR(1)</tspan></text><text x="13" y="211" class="tf">hire_date<tspan x="168.15" class="ty">DATE</tspan></text></svg><svg width="128.7" height="100" x="618.57" y="295.72" id="h2472833127" class="t"><rect height="40" width="128.7" class="th"></rect><text x="13" y="25" class="tht">salaries</text><rect height="60" width="128.7" class="t-bg" y="40"></rect><text x="13" y="61" class="tf pk">emp_no<tspan x="115.69999999999999" class="ty">INT</tspan></text><path d="M7,14A2,2 0 0,1 5,12A2,2 0 0,1 7,10A2,2 0 0,1 9,12A2,2 0 0,1 7,14M12.65,10C11.83,7.67 9.61,6 7, 6A6, 6 0 0, 0 1, 12A6, 6 0 0, 0 7, 18C9.61, 18 11.83, 16.33 12.65, 14H17V18H21V14H23V10H12.65Z" class="i pk" transform="translate(76.36992187499999, 48) scale(0.65)"></path><text x="13" y="86" class="tf">salary<tspan x="115.69999999999999" class="ty">INT</tspan></text></svg><svg width="158.48" height="100" x="766.43" y="-54.29" id="h311790747" class="t"><rect height="40" width="158.48" class="th"></rect><text x="13" y="25" class="tht">titles</text><rect height="60" width="158.48" class="t-bg" y="40"></rect><text x="13" y="61" class="tf pk">title_id<tspan x="145.48" class="ty">VARCHAR</tspan></text><path d="M7,14A2,2 0 0,1 5,12A2,2 0 0,1 7,10A2,2 0 0,1 9,12A2,2 0 0,1 7,14M12.65,10C11.83,7.67 9.61,6 7, 6A6, 6 0 0, 0 1, 12A6, 6 0 0, 0 7, 18C9.61, 18 11.83, 16.33 12.65, 14H17V18H21V14H23V10H12.65Z" class="i pk" transform="translate(67.68898437499999, 48) scale(0.65)"></path><text x="13" y="86" class="tf">title<tspan x="145.48" class="ty">VARCHAR</tspan></text></svg></g></g><text class="qdbd-link" x="10" y="20">www.quickdatabasediagrams.com</text></svg>